<svg xmlns="http://www.w3.org/2000/svg" width="30" height="48" viewBox="0 0 30 48">
  <g fill="none">
    <ellipse cx="15" cy="44.503" fill="#384144" opacity=".34" rx="10.728" ry="3.179"/>
    <ellipse cx="15.397" cy="14.503" fill="#FFF" rx="11.623" ry="11.722"/>
    <path fill="#AF63B8" d="M17.5827815,10.7284768 C15.6953642,10.7284768 13.9072848,11.4238411 12.5165563,12.4172185 C12.5165563,12.4172185 12.5165563,12.4172185 12.5165563,12.4172185 C12.9139073,11.5231788 13.1125828,10.2317881 13.1125828,9.73509934 C13.1125828,8.94039735 12.5165563,8.34437086 11.7218543,8.34437086 C10.9271523,8.34437086 10.3311258,8.94039735 10.3311258,9.73509934 C10.3311258,10.2317881 10.5298013,11.5231788 10.9271523,12.4172185 C10.0331126,12.0198675 8.74172185,11.8211921 8.24503311,11.8211921 C7.45033113,11.8211921 6.85430464,12.4172185 6.85430464,13.2119205 C6.85430464,14.0066225 7.45033113,14.602649 8.24503311,14.602649 C8.74172185,14.602649 10.0331126,14.4039735 10.9271523,14.0066225 C10.9271523,14.0066225 10.9271523,14.0066225 10.9271523,14.0066225 C9.83443709,15.397351 9.2384106,17.1854305 9.2384106,19.0728477 L13.410596,19.0728477 C13.410596,16.7880795 15.2980132,14.9006623 17.5827815,14.9006623 C18.7748344,14.9006623 19.7682119,15.397351 20.5629139,16.192053 L23.5430464,13.2119205 C21.9536424,11.6225166 19.8675497,10.7284768 17.5827815,10.7284768 Z"/>
    <path fill="#384144" d="M15.0993377,0 C6.85430464,0 0.298013245,6.65562914 0.298013245,14.9006623 C0.298013245,22.8476821 13.807947,43.410596 14.3046358,44.3046358 C14.5033113,44.602649 14.8013245,44.7019868 15.0993377,44.7019868 C15.397351,44.7019868 15.6953642,44.5033113 15.8940397,44.3046358 C16.3907285,43.410596 29.9006623,22.8476821 29.9006623,14.9006623 C29.9006623,6.65562914 23.2450331,0 15.0993377,0 Z M15.0993377,24.5364238 C9.53642384,24.5364238 5.06622517,20.0662252 5.06622517,14.4039735 C5.06622517,8.94039735 9.53642384,4.37086093 15.0993377,4.37086093 C20.6622517,4.37086093 25.1324503,8.8410596 25.1324503,14.5033113 C25.1324503,20.0662252 20.5629139,24.5364238 15.0993377,24.5364238 Z"/>
  </g>
</svg>
